<svg xmlns="http://www.w3.org/2000/svg" viewBox="0 0 64 64">
  <defs>
    <linearGradient id="g" x1="10" x2="54" y1="10" y2="54">
      <stop offset="0" stop-color="#FFD36B"/>
      <stop offset="1" stop-color="#F7B83A"/>
    </linearGradient>
  </defs>
  <path d="M44 10c-6 1-11 5-14 10-3 5-9 11-14 14-5 3-9 8-10 14-1 8 4 14 12 14 6 0 12-3 18-9 7-7 16-10 22-16 9-9 5-29-14-27z" fill="url(#g)" stroke="rgba(255,255,255,.25)" stroke-width="2"/>
  <path d="M46 8c5-1 10 2 12 7-5 2-11 1-16-2 1-2 2-4 4-5z" fill="#4ADE80" opacity=".9"/>
</svg>
