<svg xmlns="http://www.w3.org/2000/svg" width="64" height="64" viewBox="0 0 64 64">
  <defs>
    <linearGradient id="g" x1="0" y1="0" x2="1" y2="1">
      <stop offset="0" stop-color="#F7E27D"/>
      <stop offset="1" stop-color="#F3B43B"/>
    </linearGradient>
  </defs>
  <rect x="2" y="2" width="60" height="60" rx="14" fill="#0b1220" stroke="#1b2a44"/>
  <path d="M41 14c-7 1-16 7-20 16-4 8-2 17 4 22 6 6 14 7 22 3 9-4 15-13 16-20-6 4-17 3-22-1-5-4-5-15 0-20z" fill="url(#g)"/>
  <path d="M39 12c6-2 11 1 13 7-6 1-10-1-13-7z" fill="#3ddc97"/>
</svg>
